<svg width="50" height="50" viewBox="0 0 50 50" fill="none" xmlns="http://www.w3.org/2000/svg">
<path d="M18.0914 50C10.6499 49.9571 4.49438 34.7665 4.49438 27.0302C4.49438 14.3931 13.9744 11.6265 17.6279 11.6265C19.2744 11.6265 21.0325 12.2731 22.5832 12.8453C23.6675 13.2444 24.789 13.6564 25.4127 13.6564C25.7861 13.6564 26.6659 13.3059 27.4426 12.9984C29.0992 12.3389 31.1605 11.5193 33.5609 11.5193C33.5652 11.5193 33.5709 11.5193 33.5751 11.5193C35.3675 11.5193 40.8021 11.9126 44.0694 16.8193L44.8347 17.9694L43.7332 18.8005C42.1597 19.9878 39.2886 22.1537 39.2886 26.4438C39.2886 31.525 42.5402 33.4791 44.1023 34.4189C44.7918 34.8337 45.5056 35.2615 45.5056 36.197C45.5056 36.8079 40.6304 49.9242 33.5508 49.9242C31.8185 49.9242 30.594 49.4035 29.5139 48.9443C28.421 48.4793 27.4783 48.0789 25.9205 48.0789C25.1308 48.0789 24.1323 48.4522 23.0751 48.8485C21.6305 49.3877 19.9954 50 18.14 50H18.0914Z" fill="white"/>
<path d="M34.3109 0C34.4953 6.64805 29.7409 11.2602 24.9921 10.9709C24.2095 5.66553 29.7403 0 34.3109 0Z" fill="white"/>
</svg>
