<svg width="50" height="50" viewBox="0 0 50 50" fill="none" xmlns="http://www.w3.org/2000/svg">
<g clip-path="url(#clip0_42_484)">
<path d="M28.7685 25.0045L3.6597 49.1826C2.48389 48.379 1.78579 47.0424 1.79813 45.6183V4.39066C1.78579 2.96658 2.48389 1.62998 3.6597 0.826416L28.7685 25.0045Z" fill="#2196F3"/>
<path d="M37.5543 16.5591L28.7685 25.0044L3.65967 0.82633C3.75427 0.753009 3.85282 0.684795 3.95476 0.622009C5.28179 -0.182296 6.93935 -0.208262 8.29096 0.553901L37.5543 16.5591Z" fill="#4CAF50"/>
<path d="M48.2018 25.0044C48.2182 26.612 47.3446 28.097 45.9316 28.8638L37.5544 33.4497L28.7686 25.0044L37.5544 16.5591L45.9316 21.1449C47.3446 21.9118 48.2182 23.3967 48.2018 25.0044Z" fill="#FFC107"/>
<path d="M37.5543 33.4497L8.29096 49.4549C6.93637 50.2053 5.28509 50.1793 3.95476 49.3868C3.85282 49.324 3.75427 49.2558 3.65967 49.1825L28.7686 25.0044L37.5543 33.4497Z" fill="#F44336"/>
</g>
<defs>
<clipPath id="clip0_42_484">
<rect width="50" height="50" fill="white"/>
</clipPath>
</defs>
</svg>
