<svg width="50" height="50" viewBox="0 0 50 50" fill="none" xmlns="http://www.w3.org/2000/svg">
<g clip-path="url(#clip0_42_504)">
<path d="M25.0015 3.91528C13.3561 3.91528 3.91699 13.3543 3.91699 24.9999C3.91699 33.3907 8.83109 40.6142 15.9264 44.0078L16.5864 31.2559C16.5864 31.2559 15.345 30.8485 15.0733 30.7159C12.4404 29.5561 10.5277 26.1413 10.5277 21.7093C10.5277 16.8731 14.2784 12.7074 17.9045 12.673C17.9091 12.673 17.9091 12.673 17.9122 12.673C17.9137 12.673 17.9167 12.673 17.9182 12.673C21.5451 12.7073 25.2959 16.8729 25.2959 21.7093C25.2959 26.1413 23.3809 29.5547 20.7533 30.7159C20.7327 30.7249 19.2282 31.2713 19.2282 31.2713L19.9652 45.4498C21.5826 45.8478 23.2641 46.0815 25.0044 46.0815C27.3512 46.0815 29.5988 45.6817 31.7076 44.9751L32.3607 32.3394C30.6396 31.9609 29.1716 30.8652 28.2515 29.4906C27.1117 27.7831 29.1289 12.6716 29.1289 12.6716H30.4411V26.8523H31.7443V12.6731H33.1695V26.8554H34.4665V12.6731H35.9452V26.8554H37.2467V12.6731H38.2537C38.2537 12.6731 40.2709 27.7847 39.1297 29.4921C38.2186 30.8532 36.7644 31.9458 35.0647 32.3333C35.0343 32.3441 35.0067 32.3546 35.0067 32.3546L35.5743 43.2236C41.8549 39.5721 46.0876 32.7881 46.0876 25C46.0845 13.3545 36.6454 3.91528 25.0015 3.91528Z" fill="#FF0000"/>
<path d="M13.6139 19.5655C13.6895 19.2581 13.791 18.9659 13.7956 18.9606C13.8284 18.8455 13.7673 18.7279 13.6422 18.6532C13.5232 18.5891 13.3782 18.6219 13.3111 18.7249C13.3111 18.7249 13.1669 18.9546 12.9578 19.2941C12.7877 19.5863 12.536 20.0532 12.3642 20.6346C12.2154 21.1441 12.0377 21.8216 11.9576 22.5799C11.9233 22.9783 11.9156 23.3376 11.9278 23.7075C11.9576 24.1294 12.0216 24.4903 12.1437 24.903C12.5579 26.0803 12.8769 27.2202 14.0282 28.3447C14.3921 28.7186 14.766 28.9733 15.036 29.161L15.1313 29.2281C15.1894 29.2663 15.2451 29.3015 15.2999 29.3336C15.5266 29.4526 15.6783 29.4952 15.7059 29.5013C15.8187 29.5318 15.9348 29.4769 15.9827 29.3853C16.0278 29.2892 15.9949 29.1686 15.9012 29.0925C15.9012 29.0925 15.7698 28.9781 15.6014 28.7644C15.4862 28.6346 15.361 28.447 15.2154 28.235C15.1124 28.0854 14.9911 27.916 14.8781 27.7512C14.3173 26.8952 13.994 25.7005 13.5468 24.4766C13.4591 24.2111 13.3874 23.867 13.3606 23.5748C13.3249 23.2375 13.3081 22.9126 13.3081 22.6112C13.2951 21.9108 13.3263 21.3096 13.3874 20.8221C13.4575 20.2721 13.5124 19.8593 13.6139 19.5655Z" fill="#FF0000"/>
<path d="M25.0015 0C11.2175 0 0 11.2152 0 24.9999C0 38.7817 11.2175 50 25.0015 50C38.7848 50 50.0001 38.7817 50.0001 24.9999C50 11.2152 38.7848 0 25.0015 0ZM25.0015 48.1354C12.2436 48.1354 1.86383 37.7564 1.86383 24.9999C1.86383 12.242 12.2436 1.86226 25.0015 1.86226C37.758 1.86226 48.1385 12.242 48.1385 24.9999C48.1384 37.7564 37.7578 48.1354 25.0015 48.1354Z" fill="#FF0000"/>
</g>
<defs>
<clipPath id="clip0_42_504">
<rect width="50" height="50" fill="white"/>
</clipPath>
</defs>
</svg>
