<svg width="16" height="16" viewBox="0 0 16 16" fill="none" xmlns="http://www.w3.org/2000/svg">
<path d="M15.6064 7.05063L8.95093 0.395158C8.426 -0.129766 7.57466 -0.129766 7.04973 0.395158C6.52481 0.920082 6.52481 1.77143 7.04973 2.29635L12.754 8.00056L7.04973 13.7047C6.52481 14.2297 6.52481 15.081 7.04973 15.6059C7.57466 16.1309 8.426 16.1309 8.95093 15.6059L15.6064 8.95049C16.1313 8.42687 16.1313 7.57555 15.6064 7.05063ZM7.60396 6.64761L2.32011 1.07864C1.78917 0.519755 0.929201 0.519755 0.398264 1.07864C-0.132673 1.63752 -0.132673 2.54416 0.398264 3.10372L4.72155 7.66015L0.398264 12.2166C-0.132673 12.7755 -0.132673 13.6828 0.398264 14.2417C0.929201 14.8006 1.78917 14.8006 2.32011 14.2417L7.60396 8.67269C8.1349 8.11381 8.1349 7.20717 7.60396 6.64761Z" fill="#252B42"/>
</svg>
